<svg viewBox="0 0 512 512" xmlns="http://www.w3.org/2000/svg" xmlns:xlink="http://www.w3.org/1999/xlink"><linearGradient id="a" gradientTransform="matrix(1 0 0 -1 0 -18006)" gradientUnits="userSpaceOnUse" x1="0" x2="512" y1="-18262" y2="-18262"><stop offset="0" stop-color="#00f1ff"/><stop offset=".231" stop-color="#00d8ff"/><stop offset=".5138" stop-color="#00c0ff"/><stop offset=".7773" stop-color="#00b2ff"/><stop offset="1" stop-color="#00adff"/></linearGradient><path d="m512 256c0 141.386719-114.613281 256-256 256s-256-114.613281-256-256 114.613281-256 256-256 256 114.613281 256 256zm0 0" fill="url(#a)"/><g fill="#fff"><path d="m163.609375 203.921875h-31.640625c-22.230469 0-40.3125-18.082031-40.3125-40.3125v-31.640625c0-22.230469 18.082031-40.3125 40.3125-40.3125h31.640625c22.230469 0 40.3125 18.082031 40.3125 40.3125v31.640625c0 22.230469-18.082031 40.3125-40.3125 40.3125zm-31.640625-82.265625c-5.6875 0-10.3125 4.625-10.3125 10.3125v31.640625c0 5.6875 4.625 10.3125 10.3125 10.3125h31.640625c5.6875 0 10.3125-4.625 10.3125-10.3125v-31.640625c0-5.6875-4.625-10.3125-10.3125-10.3125zm0 0"/><path d="m135.132812 135.132812h25.3125v25.3125h-25.3125zm0 0"/><path d="m380.03125 203.921875h-31.640625c-22.230469 0-40.3125-18.082031-40.3125-40.3125v-31.640625c0-22.230469 18.082031-40.3125 40.3125-40.3125h31.640625c22.230469 0 40.3125 18.082031 40.3125 40.3125v31.640625c0 22.230469-18.082031 40.3125-40.3125 40.3125zm-31.640625-82.265625c-5.6875 0-10.3125 4.625-10.3125 10.3125v31.640625c0 5.6875 4.625 10.3125 10.3125 10.3125h31.640625c5.6875 0 10.3125-4.625 10.3125-10.3125v-31.640625c0-5.6875-4.625-10.3125-10.3125-10.3125zm0 0"/><path d="m351.554688 135.132812h25.3125v25.3125h-25.3125zm0 0"/><path d="m163.609375 420.34375h-31.640625c-22.230469 0-40.3125-18.082031-40.3125-40.3125v-31.640625c0-22.230469 18.082031-40.3125 40.3125-40.3125h31.640625c22.230469 0 40.3125 18.082031 40.3125 40.3125v31.640625c0 22.230469-18.082031 40.3125-40.3125 40.3125zm-31.640625-82.265625c-5.6875 0-10.3125 4.625-10.3125 10.3125v31.640625c0 5.6875 4.625 10.3125 10.3125 10.3125h31.640625c5.6875 0 10.3125-4.625 10.3125-10.3125v-31.640625c0-5.6875-4.625-10.3125-10.3125-10.3125zm0 0"/><path d="m135.132812 351.554688h25.3125v25.3125h-25.3125zm0 0"/><path d="m119.3125 218.664062h25.3125v25.3125h-25.3125zm0 0"/><path d="m144.625 269.289062h24.679688v25.3125h25.3125v-25.3125h-24.679688v-25.3125h-25.3125zm0 0"/><path d="m271.1875 142.726562h25.3125v25.3125h-25.3125zm0 0"/><path d="m220.5625 119.3125h25.3125v48.726562h-25.3125zm0 0"/><path d="m245.875 94h25.3125v25.3125h-25.3125zm0 0"/><path d="m271.1875 168.039062h-25.3125v25.3125h-25.3125v25.3125h50.625zm0 0"/><path d="m220.5625 294.601562h25.3125v24.679688h25.3125v24.679688h50.625v-25.3125h-50.625v-24.679688h-25.3125v-49.992188h-25.3125zm0 0"/><path d="m271.1875 218.664062h25.3125v50.625h-25.3125zm0 0"/><path d="m392.6875 243.34375v-24.679688h-46.195312v25.3125h-24.679688v25.3125h25.3125v24.679688h70.875v-50.625zm-45.5625 25.3125v-24.679688h45.5625v24.679688zm0 0"/><path d="m392.6875 318.648438h25.3125v50.625h-25.3125zm0 0"/><path d="m296.5 269.289062h25.3125v25.3125h-25.3125zm0 0"/><path d="m321.8125 343.960938h25.3125v25.3125h-25.3125zm0 0"/><path d="m347.125 318.648438h25.3125v25.3125h-25.3125zm0 0"/><path d="m347.125 418h25.3125v-23.414062h20.25v-25.3125h-45.5625zm0 0"/><path d="m220.5625 319.28125h25.3125v48.09375h-25.3125zm0 0"/><path d="m245.875 418h25.3125v-25.3125h24.679688v25.3125h25.3125v-25.3125h-24.679688v-25.3125h-50.625zm0 0"/><path d="m169.9375 218.664062h50.625v25.3125h-50.625zm0 0"/><path d="m94 243.976562h25.3125v50.625h-25.3125zm0 0"/></g></svg>